<svg version="1.1" id="Layer_1" xmlns="http://www.w3.org/2000/svg" xmlns:xlink="http://www.w3.org/1999/xlink" x="0px" y="0px" viewBox="0 292 612 206" enable-background="new 0 292 612 206" xml:space="preserve" class="nav-logo">

<linearGradient id="bub_gradient" gradientUnits="userSpaceOnUse" x1="306.7934" y1="305.7528" x2="306.7934" y2="484.7857">
	<stop  offset="0" style="stop-color:#EEEEEE"/>
	<stop  offset="2.770826e-002" style="stop-color:#F1F1F1"/>
	<stop  offset="0.1133" style="stop-color:#F6F6F6"/>
	<stop  offset="0.7734" style="stop-color:#FFFFFF"/>
	<stop  offset="0.8429" style="stop-color:#FCFCFC"/>
	<stop  offset="0.8988" style="stop-color:#F2F2F2"/>
	<stop  offset="0.9497" style="stop-color:#EEEEEE"/>
	<stop  offset="1" style="stop-color:#EEEEEE"/>
</linearGradient>

<path fill="url(#bub_gradient)" class="logo-bub" d="M529.2,356.5c-8.6,0-16.8,0.9-24.5,2.6c-13.2-15.7-33.2-25.8-55.9-25.8c-7.7,0-15.2,1.1-22.1,3.3
	C390.4,318,331,305.8,264,305.8c-94.1,0-173,23.9-194.4,56.3c-37.3,9.5-62.7,28.1-62.7,49.5c0,31.1,53.3,56.3,119.1,56.3
	c8.6,0,16.8-0.4,24.8-1.3c17,11.1,42.4,18.3,70.9,18.3c25.4,0,48.2-5.7,64.9-14.6c13.5,8.2,33.8,13.5,56.6,13.5
	c29,0,54.1-8.6,66.1-21c11.3,7.1,24.8,11.3,39.3,11.3c19.9,0,38.2-7.9,51.2-20.6c9,2.4,18.8,3.7,29,3.7c42.9,0,77.8-22.5,77.8-50.1
	S572.1,356.5,529.2,356.5L529.2,356.5z"/>

<path class="logo-text" fill='#5CAD26' d="M59.6,398.4c0-4.2,1.3-7.5,3.7-9.9c2.4-2.4,5.7-3.7,9.9-3.7h27v11.3H77.6c-2.2,0-3.3,1.1-3.3,3.3v16.3
	c0,0.9,0.4,1.5,0.9,2s1.3,0.9,2.2,0.9c2.2,0,4.6,0,7.3,0c2.6,0,5.1-0.2,7.5-0.4c2.7-0.2,5.5-0.5,8-0.7v11c-3.1,0.4-6.4,0.7-9.5,0.7
	c-2.7,0.5-5.7,0.7-9,0.7s-6.4,0-9.3,0c-3.8,0-6.9-1.1-9.1-3.5c-2.4-2.4-3.5-5.3-3.5-9.1v-19H59.6z M106.7,370.6h14.8v45.1
	c0,0.9,0.4,1.5,0.9,2.2c0.5,0.5,1.3,0.9,2.2,0.9h5.1v11c-1.1,0.2-2.2,0.4-3.5,0.4c-1.1,0.2-2.2,0.2-3.3,0.4c-1.1,0-2.4,0.2-3.3,0.2
	c-3.8,0-6.9-1.1-9.1-3.5c-2.4-2.4-3.5-5.3-3.5-9.1v-47.5H106.7z M152.7,394.5c-2.2,0-3.3,1.1-3.3,3.3v4.6h14.2v-4.6
	c0-2.2-1.1-3.3-3.3-3.3H152.7L152.7,394.5z M134.6,397.5c0-4.2,1.3-7.5,3.7-9.9c2.4-2.4,5.7-3.7,9.9-3.7H165c4.2,0,7.5,1.3,9.9,3.7
	s3.7,5.7,3.7,9.9V413h-29.2v3.3c0,0.7,0.4,1.5,0.9,2s1.3,0.7,2.2,0.7c2.4,0,5.1,0,7.9,0c2.9,0,5.5,0,8,0c2.9-0.4,5.7-0.7,8.6-0.9
	v10.6c-3.3,0.4-6.6,0.7-10,0.7c-2.9,0.5-6,0.7-9.5,0.7c-3.5,0-6.8,0-9.9,0c-3.8,0-6.9-1.1-9.1-3.5c-2.4-2.4-3.5-5.3-3.5-9.1v-20.1
	H134.6z M203.7,418.7c1.1,0,2.2,0,3.3-0.2c1.1-0.2,2.2-0.4,3.3-0.5c1.1-0.2,2.4-0.5,3.5-0.9v-5.1h-12.2c-0.9,0-1.5,0.4-2.2,0.9
	c-0.5,0.5-0.9,1.3-0.9,2.2v0.9c0,0.9,0.4,1.5,0.9,2.2c0.5,0.5,1.3,0.9,2.2,0.9h2.2V418.7z M196.6,430.3c-3.8,0-6.9-1.1-9.1-3.5
	c-2.4-2.4-3.5-5.3-3.5-9.1v-3.8c0-3.8,1.1-6.9,3.5-9.1c2.4-2.4,5.3-3.5,9.1-3.5h17.4V398c0-0.7-0.4-1.5-0.9-2s-1.3-0.7-2.2-0.7
	c-2.2,0-4.7,0-7.3,0c-2.6,0-5.1,0.2-7.3,0.4c-2.7,0.4-5.5,0.5-8,0.5v-10.4c3.1-0.4,6.2-0.7,9.5-0.7c2.7-0.5,5.8-0.7,9-0.7
	c3.3,0,6.4,0,9.3,0c3.8,0,6.9,1.1,9.1,3.5c2.4,2.4,3.5,5.3,3.5,9.1v32.7h-13l-0.9-4.2c-1.5,0.9-3.1,1.8-4.7,2.6
	c-1.5,0.5-3.1,1.3-4.9,1.6c-1.8,0.5-3.7,0.7-5.5,0.7H196.6L196.6,430.3z M249.2,384.9l0.9,4.2c1.5-0.9,3.1-1.8,4.7-2.6
	c1.5-0.5,3.1-1.3,4.9-1.6c1.8-0.5,3.7-0.7,5.5-0.7h3.8c3.8,0,6.9,1.1,9.1,3.5c2.4,2.4,3.5,5.3,3.5,9.1v32.9h-14.8v-30.3
	c0-0.9-0.4-1.5-0.9-2.2c-0.5-0.5-1.3-0.9-2.2-0.9h-2.9c-1.1,0-2.2,0-3.3,0.2s-2.2,0.4-3.3,0.5s-2.4,0.5-3.5,0.9v31.6H236v-44.6
	H249.2L249.2,384.9z M320.8,429.6l-0.9-4.2c-1.5,0.9-3.1,1.8-4.7,2.6c-1.5,0.5-3.1,1.3-4.9,1.6c-1.8,0.5-3.7,0.7-5.5,0.7h-3.8
	c-3.8,0-6.9-1.1-9.1-3.5c-2.4-2.4-3.5-5.3-3.5-9.1v-19.4c0-4.2,1.3-7.5,3.7-9.9c2.4-2.4,5.7-3.7,9.9-3.7h17.4v-14.2H334v59H320.8
	L320.8,429.6z M319.2,396.4h-12.6c-2.2,0-3.3,1.1-3.3,3.3v15.5c0,0.9,0.4,1.5,0.9,2.2c0.5,0.5,1.3,0.9,2.2,0.9h2.9
	c1.1,0,2.2,0,3.3-0.2s2.2-0.4,3.3-0.5s2.4-0.5,3.5-0.9v-20.3H319.2z M355.3,384.9l0.9,5.5c1.3-1.1,2.7-2.2,4.4-3.1
	c1.3-0.7,2.9-1.5,4.7-2.2s3.8-1.1,6-1.1h3.8v13h-7.1c-1.5,0-2.9,0.2-4.2,0.4c-1.3,0.4-2.6,0.5-3.5,0.9c-1.1,0.4-2.2,0.7-3.3,1.3v30
	h-14.8v-44.6H355.3L355.3,384.9z M396.6,394.5c-2.2,0-3.3,1.1-3.3,3.3v4.6h14.2v-4.6c0-2.2-1.1-3.3-3.3-3.3H396.6L396.6,394.5z
	 M378.5,397.5c0-4.2,1.3-7.5,3.7-9.9s5.7-3.7,9.9-3.7h16.8c4.2,0,7.5,1.3,9.9,3.7s3.7,5.7,3.7,9.9V413h-29v3.3c0,0.7,0.4,1.5,0.9,2
	s1.3,0.7,2.2,0.7c2.4,0,5.1,0,7.9,0c2.9,0,5.5,0,8,0c2.9-0.4,5.7-0.7,8.6-0.9v10.6c-3.3,0.4-6.6,0.7-10,0.7c-2.9,0.5-6,0.7-9.5,0.7
	c-3.5,0-6.8,0-9.9,0c-3.8,0-6.9-1.1-9.1-3.5c-2.4-2.4-3.5-5.3-3.5-9.1v-20.1H378.5z M447.6,418.7c1.1,0,2.2,0,3.3-0.2
	c1.1-0.2,2.2-0.4,3.3-0.5s2.4-0.5,3.5-0.9v-5.1h-12.2c-0.9,0-1.5,0.4-2.2,0.9c-0.5,0.5-0.9,1.3-0.9,2.2v0.9c0,0.9,0.4,1.5,0.9,2.2
	c0.5,0.5,1.3,0.9,2.2,0.9h2.2V418.7z M440.5,430.3c-3.8,0-6.9-1.1-9.1-3.5c-2.4-2.4-3.5-5.3-3.5-9.1v-3.8c0-3.8,1.1-6.9,3.5-9.1
	c2.4-2.4,5.3-3.5,9.1-3.5h17.4V398c0-0.7-0.4-1.5-0.9-2s-1.3-0.7-2.2-0.7c-2.2,0-4.7,0-7.3,0c-2.6,0-5.1,0.2-7.3,0.4
	c-2.7,0.4-5.5,0.5-8,0.5v-10.4c3.1-0.4,6.2-0.7,9.5-0.7c2.7-0.5,5.8-0.7,9-0.7c3.3,0,6.4,0,9.3,0c3.8,0,6.9,1.1,9.1,3.5
	c2.4,2.4,3.5,5.3,3.5,9.1v32.7h-13l-0.9-4.2c-1.5,0.9-3.1,1.8-4.7,2.6c-1.5,0.5-3.1,1.3-4.9,1.6c-1.8,0.5-3.7,0.7-5.5,0.7H440.5
	L440.5,430.3z M532.2,396.4c-0.9,0-2,0-3.1,0.2c-1.1,0.2-2.2,0.4-3.1,0.5c-1.1,0.2-2.2,0.5-3.5,0.9v31.6h-14.6v-30.3
	c0-0.9-0.4-1.5-0.9-2.2c-0.5-0.5-1.3-0.9-2.2-0.9h-0.4c-0.9,0-2,0-3.1,0.2s-2.2,0.4-3.1,0.5c-1.1,0.2-2.2,0.5-3.5,0.9v31.6h-14.8
	v-44.6h13l0.9,4.2c1.5-0.9,3.1-1.8,4.7-2.6c1.5-0.5,3.1-1.3,4.9-1.6c1.8-0.5,3.7-0.7,5.5-0.7h0.9c2.6,0,4.6,0.5,6.4,1.5
	c1.6,0.9,3.1,2.2,4.2,3.7c1.5-0.9,2.9-1.8,4.7-2.6c1.5-0.5,3.1-1.3,5.1-1.6c2-0.5,4.2-0.7,6.6-0.7h0.9c3.8,0,6.9,1.1,9.1,3.5
	c2.4,2.4,3.5,5.3,3.5,9.1v32.9h-14.8v-30.5c0-0.9-0.4-1.5-0.9-2.2c-0.5-0.5-1.3-0.9-2.2-0.9h-0.4V396.4z"/>
</svg>
